#!OML:ASF E:\motion texture\Top Level 1\Subject 1\Session 1\male.ASF
:FULLY-SPECIFIED
:DEGREES
95
root 18.8348 17.9884 4.45622 121.227 -76.9476 -127.134
lowerback 8.13031 3.85091 11.0804
upperback 0.719581 6.10343 2.83573
thorax -2.95634 2.85328 -3.7984
lowerneck -17.1084 -6.78593 -8.29989
upperneck 14.5948 -8.8095 8.43379
head 8.08333 -3.88594 3.06699
rclavicle 5.39328e-014 -1.86858e-014
rhumerus 3.19963 21.6412 -81.273
rradius 75.4026
rwrist -6.76023
rhand -9.10024 -6.62225
rfingers 7.12502
rthumb 16.8499 -35.9112
lclavicle 5.39328e-014 -1.86858e-014
lhumerus -59.0213 -4.59063 77.8503
lradius 57.377
lwrist 3.75863
lhand -7.03431 3.6429
lfingers 7.12502
lthumb 18.8378 32.7507
rfemur 7.02973 4.91821 36.9527
rtibia 26.143
rfoot -11.5056 -3.28819
rtoes 4.61893
lfemur -90.9991 9.85129 -11.4284
ltibia 72.4565
lfoot 191.595 13.6131
ltoes -1.39728
96
root 18.6966 17.9817 4.4536 120.906 -76.9217 -126.518
lowerback 7.78038 3.83641 11.1017
upperback 0.63331 6.04624 2.83899
thorax -2.85828 2.82849 -3.7769
lowerneck -17.1077 -6.77197 -8.2939
upperneck 14.6079 -8.80473 8.48886
head 8.08972 -3.87845 3.08515
rclavicle 5.1156e-015 4.2043e-014
rhumerus 2.83576 21.5491 -81.3312
rradius 75.4691
rwrist -6.75836
rhand -9.07329 -6.62879
rfingers 7.12502
rthumb 16.8759 -35.9155
lclavicle 5.1156e-015 4.2043e-014
lhumerus -58.9333 -4.68451 77.9743
lradius 57.3453
lwrist 3.73589
lhand -7.02461 3.57305
lfingers 7.12502
lthumb 18.8472 32.68
rfemur 7.19465 4.86029 36.9717
rtibia 26.1207
rfoot -11.5661 -3.12457
rtoes 4.02866
lfemur -90.4903 9.88073 -11.3868
ltibia 73.8152
lfoot 192.008 14.1538
ltoes -1.49206
97
root 18.558 17.9744 4.45114 120.711 -76.8801 -125.974
lowerback 7.39786 3.83154 11.123
upperback 0.523169 5.9993 2.8373
thorax -2.76506 2.80783 -3.76001
lowerneck -17.0882 -6.75912 -8.29062
upperneck 14.6106 -8.80391 8.55538
head 8.09043 -3.87261 3.10746
rclavicle -3.83437e-015 -2.11706e-014
rhumerus 2.42181 21.4623 -81.4128
rradius 75.5222
rwrist -6.76889
rhand -9.04248 -6.65474
rfingers 7.12502
rthumb 16.9055 -35.9389
lclavicle -3.83437e-015 -2.11706e-014
lhumerus -58.8528 -4.7932 78.1045
lradius 57.3364
lwrist 3.71485
lhand -7.02365 3.52966
lfingers 7.12502
lthumb 18.8481 32.6365
rfemur 7.32396 4.82772 36.9976
rtibia 26.0709
rfoot -11.6319 -2.97028
rtoes 3.48094
lfemur -89.8934 9.96591 -11.323
ltibia 75.2476
lfoot 192.452 14.8188
ltoes -1.65336
98
root 18.4185 17.9665 4.44909 120.734 -76.8124 -125.607
lowerback 6.98182 3.83897 11.1425
upperback 0.404879 5.9641 2.83143
thorax -2.65949 2.79338 -3.74508
lowerneck -17.0814 -6.74206 -8.27777
upperneck 14.6187 -8.79805 8.61626
head 8.09402 -3.86398 3.12676
rclavicle -4.83839e-014 -6.2816e-014
rhumerus 1.98339 21.3944 -81.5123
rradius 75.5569
rwrist -6.78225
rhand -9.01458 -6.68125
rfingers 7.12502
rthumb 16.9324 -35.9632
lclavicle -4.83839e-014 -6.2816e-014
lhumerus -58.7661 -4.88772 78.2274
lradius 57.3462
lwrist 3.67915
lhand -7.01359 3.50712
lfingers 7.12502
lthumb 18.8578 32.613
rfemur 7.42251 4.834 37.024
rtibia 26.0112
rfoot -11.6992 -2.81137
rtoes 2.91976
lfemur -89.1916 10.1271 -11.2365
ltibia 76.7666
lfoot 192.956 15.609
ltoes -1.88657
99
root 18.2792 17.9578 4.44727 120.909 -76.7253 -125.366
lowerback 6.55831 3.85206 11.1626
upperback 0.276825 5.93579 2.82101
thorax -2.55829 2.78166 -3.73566
lowerneck -17.0781 -6.72072 -8.25229
upperneck 14.6291 -8.78747 8.6674
head 8.09744 -3.8532 3.14134
rclavicle 3.60421e-014 2.40529e-014
rhumerus 1.51564 21.3432 -81.6304
rradius 75.5692
rwrist -6.78892
rhand -8.99585 -6.67912
rfingers 7.12502
rthumb 16.9504 -35.9595
lclavicle 3.60421e-014 2.40529e-014
lhumerus -58.6744 -4.96649 78.3381
lradius 57.3684
lwrist 3.63253
lhand -6.99863 3.49179
lfingers 7.12502
lthumb 18.8721 32.5963
rfemur 7.49613 4.87358 37.0554
rtibia 25.9527
rfoot -11.7685 -2.65589
rtoes 2.37054
lfemur -88.3763 10.3478 -11.1264
ltibia 78.3667
lfoot 193.531 16.5571
ltoes -2.20543
100
root 18.1393 17.9483 4.44574 121.275 -76.6156 -125.301
lowerback 6.15224 3.8713 11.1775
upperback 0.134915 5.91863 2.80832
thorax -2.47996 2.77368 -3.7287
lowerneck -17.088 -6.69313 -8.21916
upperneck 14.6518 -8.76776 8.70639
head 8.10544 -3.83829 3.15159
rclavicle -1.75459e-014 7.65321e-015
rhumerus 1.00446 21.3165 -81.7695
rradius 75.5676
rwrist -6.79812
rhand -9.00097 -6.68749
rfingers 7.12502
rthumb 16.9455 -35.9683
lclavicle -1.75459e-014 7.65321e-015
lhumerus -58.5959 -5.02498 78.4393
lradius 57.4101
lwrist 3.57932
lhand -6.96817 3.49156
lfingers 7.12502
lthumb 18.9014 32.5932
rfemur 7.56142 4.95446 37.0872
rtibia 25.8895
rfoot -11.8382 -2.49778
rtoes 1.84547
lfemur -87.4349 10.6364 -10.9948
ltibia 80.3636
lfoot 195.718 32.1064
ltoes -2.5708
